<svg width="16" height="14" viewBox="0 0 16 14" fill="none" xmlns="http://www.w3.org/2000/svg">
<path d="M15.1657 5.79241V5.17446C15.1657 4.04445 14.3902 3.09457 13.3443 2.82239L13.3424 1.80352C13.3424 0.809184 12.5332 0 11.5385 0H11.4431L3.00063 2.619C2.80835 2.63011 2.62592 2.67456 2.4546 2.74146H2.43259C1.09142 2.74146 0 3.83288 0 5.17446V11.2143C0 12.5557 1.09121 13.6473 2.43259 13.6473H12.7331C14.0742 13.6473 15.1657 12.5559 15.1657 11.2143V10.411C15.6528 10.2225 16 9.75026 16 9.19711V7.00587C15.9998 6.45313 15.6528 5.98092 15.1657 5.79241ZM14.7417 9.1969C14.7417 9.22164 14.7222 9.24114 14.6974 9.24114H11.2919C11.2671 9.24114 11.2479 9.22164 11.2479 9.1969V7.00587C11.2479 6.98176 11.2676 6.96205 11.2919 6.96205H14.6974C14.7217 6.96205 14.7417 6.98176 14.7417 7.00587V9.1969ZM11.6163 1.26379C11.8807 1.30153 12.0843 1.52925 12.0843 1.80457L12.086 2.74166H6.85238L11.6163 1.26379ZM12.7331 12.389H2.4328C1.78423 12.389 1.25834 11.8629 1.25834 11.2141V5.17446C1.25834 4.52548 1.78423 3.99958 2.4328 3.99958H12.7331C13.3818 3.99958 13.9075 4.52548 13.9075 5.17446V5.70392H11.2919C10.5739 5.70392 9.98972 6.2879 9.98972 7.00587V9.1969C9.98972 9.91508 10.5739 10.4993 11.2919 10.4993H13.9075V11.2143C13.9075 11.8629 13.3818 12.389 12.7331 12.389Z" fill="#705E00"/>
</svg>
