<svg width="32" height="32" viewBox="0 0 32 32" fill="none" xmlns="http://www.w3.org/2000/svg">
<path d="M30.9992 12.2449C30.3004 11.3698 29.3469 10.8865 28.3151 10.8865H25.9575C25.7355 4.83918 21.3534 0 15.9983 0C10.6432 0 6.2612 4.83918 6.03916 10.8865H3.68161C2.64977 10.8865 1.6963 11.3698 0.997525 12.2449C0.115893 13.342 -0.204107 14.8702 0.128954 16.3396L2.95671 28.8C3.3812 30.6808 4.84406 32 6.50936 32H25.4808C27.1461 32 28.609 30.6873 29.0334 28.8L31.8677 16.3396C32.2008 14.8702 31.8808 13.342 30.9992 12.2449ZM15.9983 2.66449C19.8906 2.66449 23.0775 6.30857 23.2865 10.8865H8.71018C8.91916 6.3151 12.1061 2.66449 15.9983 2.66449ZM29.2685 15.7453L26.4408 28.2122C26.2971 28.8522 25.8857 29.3355 25.4873 29.3355H6.50936C6.11099 29.3355 5.69957 28.8522 5.55589 28.2122L2.72814 15.7453C2.57793 15.0857 2.48651 13.551 3.68161 13.551H28.3151C29.6016 13.551 29.4187 15.0857 29.2685 15.7453Z" fill="#F5CE00"/>
<path d="M9.38303 16.2024C8.64507 16.2024 8.05078 16.7967 8.05078 17.5346V25.8612C8.05078 26.5991 8.64507 27.1934 9.38303 27.1934C10.121 27.1934 10.7153 26.5991 10.7153 25.8612V17.5346C10.7218 16.8032 10.121 16.2024 9.38303 16.2024Z" fill="#F5CE00"/>
<path d="M15.8415 16.2024C15.1036 16.2024 14.5093 16.7967 14.5093 17.5346V25.8612C14.5093 26.5991 15.1036 27.1934 15.8415 27.1934C16.5795 27.1934 17.1738 26.5991 17.1738 25.8612V17.5346C17.1738 16.8032 16.573 16.2024 15.8415 16.2024Z" fill="#F5CE00"/>
<path d="M22.2937 16.2024C21.5557 16.2024 20.9614 16.7967 20.9614 17.5346V25.8612C20.9614 26.5991 21.5557 27.1934 22.2937 27.1934C23.0316 27.1934 23.6259 26.5991 23.6259 25.8612V17.5346C23.6259 16.8032 23.0316 16.2024 22.2937 16.2024Z" fill="#F5CE00"/>
</svg>
