<svg width="32" height="32" viewBox="0 0 32 32" fill="none" xmlns="http://www.w3.org/2000/svg">
<g clip-path="url(#clip0_333_336)">
<path d="M27.9448 0H23.5208H5.82488C3.14173 0 0.958496 2.18324 0.958496 4.86638V27.1336C0.958496 29.8168 3.14173 32 5.82488 32H23.5208H27.9448C29.652 32 31.0416 30.6104 31.0416 28.9032V3.09679C31.0416 1.38913 29.6516 0 27.9448 0ZM5.82488 29.3456C4.60519 29.3456 3.61289 28.3533 3.61289 27.1336V4.86638C3.61289 3.64669 4.60519 2.65439 5.82488 2.65439H23.5208C23.765 2.65439 23.9632 2.85303 23.9632 3.09679V28.9032C23.9632 29.1474 23.765 29.3456 23.5208 29.3456H5.82488ZM28.3872 28.9032C28.3872 29.1474 28.189 29.3456 27.9448 29.3456H26.5822C26.603 29.2009 26.6176 29.0541 26.6176 28.9032V3.09679C26.6176 2.94637 26.6034 2.7995 26.5822 2.65439H27.9448C28.189 2.65439 28.3872 2.85303 28.3872 3.09679V28.9032Z" fill="#F5CE00"/>
<path d="M21.3089 7.13055H6.7832V9.78494H21.3089V7.13055Z" fill="#F5CE00"/>
<path d="M21.3089 11.2599H6.7832V13.9143H21.3089V11.2599Z" fill="#F5CE00"/>
</g>
<defs>
<clipPath id="clip0_333_336">
<rect width="32" height="32" fill="white"/>
</clipPath>
</defs>
</svg>
