<svg width="49" height="42" viewBox="0 0 49 42" fill="none" xmlns="http://www.w3.org/2000/svg">
<path d="M38.2385 26.6471C39.4701 27.8113 40.9732 29.0636 42.1178 30.6634C42.4578 31.1286 42.216 31.7049 41.7428 32.0696C41.2616 32.4589 40.6952 32.4386 40.2738 32.0561C38.9928 30.8759 37.7606 29.6297 36.561 28.3668C36.197 27.9756 36.1106 27.4018 36.5418 26.9144C36.965 26.4516 37.4234 26.3004 38.2385 26.6471Z" fill="#F5CE00"/>
<path d="M42.127 12.33C40.84 13.6035 39.6043 15.1393 37.9879 16.2513C37.5227 16.5913 36.9217 16.3414 36.5817 15.8762C36.2664 15.4191 36.1473 14.8619 36.5952 14.4072C37.8167 13.1669 39.0463 11.902 40.3092 10.7025C40.7331 10.3218 41.3075 10.3174 41.7863 10.6913C42.1997 11.0984 42.3349 11.6062 42.127 12.33Z" fill="#F5CE00"/>
<path d="M45.4897 21.7994C45.2559 22.351 44.8068 22.6416 44.1503 22.6466C42.6158 22.6665 41.0814 22.6863 39.5549 22.6815C38.767 22.6711 38.2302 22.2238 38.1913 21.4199C38.1684 20.5666 38.7563 20.1846 39.5523 20.1704C41.0867 20.1505 42.6212 20.1306 44.1563 20.1928C45.1743 20.2508 45.713 20.9442 45.4897 21.7994Z" fill="#F5CE00"/>
<path d="M34.5285 33.0271C34.494 25.2395 34.5088 17.4678 34.5484 9.70419C34.5544 8.34186 34.0244 7.70578 32.6787 7.73241C31.251 7.75966 29.8146 7.72953 28.3622 7.74877C27.3528 7.74822 26.5421 7.97595 26.5681 9.23955C26.5805 9.78929 26.2455 9.98058 25.7951 10.1071C19.128 11.8154 13.0021 15.6369 5.76785 15.0599C4.65109 14.9699 4.13841 15.5401 4.13911 16.7136C4.16216 19.7498 4.16053 22.778 4.1262 25.8229C4.10471 27.3166 4.74889 27.8534 6.27534 27.8582C8.27748 27.8266 10.3104 27.5321 12.3022 28.2884C13.1086 28.5777 13.4313 28.9281 13.5202 29.8302C13.7838 32.126 15.0031 33.8319 17.241 34.5863C19.4789 35.3407 21.518 34.7754 23.1221 33.1137C23.8304 32.3616 24.4029 32.111 25.3346 32.6866C26.1225 32.6971 26.5766 33.0629 26.6248 34.0063C26.6557 34.8349 27.3308 35.1088 28.1267 35.0945C29.6118 35.0586 31.1049 34.9981 32.6073 35.0769C34.1177 35.1311 34.531 34.4469 34.5285 33.0271ZM9.00044 25.7695L7.19512 25.7832C6.8422 25.7776 6.55281 25.4926 6.53366 25.1317L6.52695 17.7623C6.53248 17.4094 6.81751 17.12 7.17845 17.1008L8.98377 17.0871C9.33669 17.0927 9.62608 17.3777 9.64523 17.7386L9.65194 25.108C9.63839 25.4856 9.35336 25.775 9.00044 25.7695ZM18.4298 32.2713C17.1477 32.0184 16.3122 31.1466 15.9801 29.5653C17.8065 30.1587 19.4601 30.696 21.2124 31.2654C20.5153 32.4032 19.4491 32.4933 18.4298 32.2713ZM13.0473 25.9111C12.4797 25.7266 12.3544 25.4404 12.35 24.8659C12.382 22.5843 12.3398 20.2786 12.3471 17.9889C12.3513 17.4719 12.4963 17.1097 13.0528 16.9085C17.5062 15.4632 21.9429 13.9852 26.527 12.4732C26.5151 18.4722 26.5266 24.3152 26.5308 30.2648C21.9896 28.7893 17.5225 27.3379 13.0473 25.9111ZM31.2849 32.7645L29.8078 32.7758C29.4302 32.7622 29.1408 32.4772 29.1297 32.0916L29.0819 10.6566C29.0954 10.279 29.3804 9.98961 29.7661 9.97848L31.2431 9.96726C31.6207 9.98081 31.9101 10.2658 31.9213 10.6515L31.9691 32.0864C31.9555 32.464 31.6378 32.7701 31.2849 32.7645Z" fill="#F5CE00"/>
</svg>
