<svg width="36" height="34" viewBox="0 0 36 34" fill="none" xmlns="http://www.w3.org/2000/svg">
<path d="M16.3473 3.08643C16.9534 1.63786 19.0466 1.63786 19.6528 3.08643L22.7326 10.4463C22.9893 11.0595 23.5772 11.4781 24.2514 11.5278L32.3451 12.1243C33.938 12.2417 34.5848 14.1928 33.3665 15.2054L27.1764 20.3506C26.6607 20.7792 26.4361 21.4566 26.5964 22.1005L28.5185 29.8291C28.8968 31.3502 27.2034 32.5559 25.8443 31.7332L18.9388 27.5532C18.3634 27.205 17.6367 27.205 17.0613 27.5532L10.1557 31.7332C8.79659 32.5559 7.10321 31.3502 7.48154 29.8291L9.40376 22.1005C9.56391 21.4566 9.33936 20.7792 8.82362 20.3506L2.63353 15.2054C1.41519 14.1928 2.062 12.2417 3.65499 12.1243L11.7486 11.5278C12.4229 11.4781 13.0108 11.0595 13.2674 10.4463L16.3473 3.08643Z" stroke="#F5CE00" stroke-width="3"/>
</svg>
