<svg width="305" height="93" viewBox="0 0 305 93" fill="none" xmlns="http://www.w3.org/2000/svg">
<g filter="url(#filter0_d_30_275)">
<path d="M56.7284 37.038C56.7284 40.5637 55.9132 43.8005 54.2828 46.7482C52.6524 49.6382 50.1485 51.979 46.7713 53.7708C43.394 55.5625 39.2016 56.4584 34.1939 56.4584H24.9356V78.3064H10V17.4442H34.1939C39.0851 17.4442 43.2193 18.2823 46.5966 19.9584C49.9739 21.6346 52.5068 23.9466 54.1954 26.8943C55.884 29.842 56.7284 33.2233 56.7284 37.038ZM33.0585 44.6675C35.9117 44.6675 38.037 44.0028 39.4345 42.6734C40.832 41.344 41.5307 39.4656 41.5307 37.038C41.5307 34.6105 40.832 32.732 39.4345 31.4026C38.037 30.0732 35.9117 29.4086 33.0585 29.4086H24.9356V44.6675H33.0585Z" fill="#FFD600"/>
<path d="M116.458 37.9917C118.205 35.3329 120.388 33.2522 123.009 31.7494C125.629 30.1888 128.54 29.4086 131.743 29.4086V45.101H127.638C123.911 45.101 121.116 45.9101 119.253 47.5285C117.389 49.0891 116.458 51.8634 116.458 55.8515V78.3064H101.522V29.9287H116.458V37.9917Z" fill="white"/>
<path d="M184.824 53.3373C184.824 54.7245 184.737 56.1694 184.562 57.6722H150.76C150.993 60.6778 151.954 62.9897 153.643 64.6081C155.389 66.1686 157.515 66.9489 160.019 66.9489C163.745 66.9489 166.336 65.3884 167.792 62.2672H183.689C182.873 65.4462 181.388 68.3072 179.234 70.8504C177.138 73.3935 174.488 75.3876 171.286 76.8325C168.083 78.2775 164.502 79 160.543 79C155.768 79 151.517 77.9885 147.791 75.9656C144.064 73.9426 141.153 71.0527 139.056 67.2957C136.96 63.5388 135.912 59.1461 135.912 54.1176C135.912 49.0891 136.931 44.6964 138.969 40.9394C141.065 37.1825 143.977 34.2926 147.703 32.2696C151.43 30.2466 155.71 29.2352 160.543 29.2352C165.259 29.2352 169.452 30.2177 173.12 32.1829C176.788 34.1481 179.642 36.9513 181.68 40.5926C183.776 44.234 184.824 48.4822 184.824 53.3373ZM169.539 49.4359C169.539 46.8927 168.666 44.8698 166.919 43.367C165.172 41.8642 162.988 41.1128 160.368 41.1128C157.864 41.1128 155.739 41.8353 153.992 43.2803C152.303 44.7253 151.255 46.7771 150.848 49.4359H169.539ZM170.587 17.5309L149.538 26.2874V16.057L170.587 6V17.5309Z" fill="white"/>
<path d="M238.646 53.3373C238.646 54.7245 238.558 56.1694 238.383 57.6722H204.582C204.815 60.6778 205.776 62.9897 207.464 64.6081C209.211 66.1686 211.336 66.9489 213.84 66.9489C217.567 66.9489 220.158 65.3884 221.614 62.2672H237.51C236.695 65.4462 235.21 68.3072 233.056 70.8504C230.959 73.3935 228.31 75.3876 225.107 76.8325C221.905 78.2775 218.324 79 214.364 79C209.589 79 205.339 77.9885 201.612 75.9656C197.886 73.9426 194.974 71.0527 192.878 67.2957C190.782 63.5388 189.734 59.1461 189.734 54.1176C189.734 49.0891 190.753 44.6964 192.791 40.9394C194.887 37.1825 197.798 34.2926 201.525 32.2696C205.251 30.2466 209.531 29.2352 214.364 29.2352C219.081 29.2352 223.273 30.2177 226.942 32.1829C230.61 34.1481 233.463 36.9513 235.501 40.5926C237.597 44.234 238.646 48.4822 238.646 53.3373ZM223.361 49.4359C223.361 46.8927 222.487 44.8698 220.74 43.367C218.993 41.8642 216.81 41.1128 214.19 41.1128C211.686 41.1128 209.56 41.8353 207.814 43.2803C206.125 44.7253 205.077 46.7771 204.669 49.4359H223.361Z" fill="white"/>
<path d="M243.555 54.0309C243.555 49.0602 244.487 44.6964 246.35 40.9394C248.272 37.1825 250.863 34.2926 254.124 32.2696C257.384 30.2466 261.024 29.2352 265.041 29.2352C268.244 29.2352 271.155 29.8998 273.776 31.2292C276.454 32.5586 278.55 34.3504 280.064 36.6045V14.1496H295V78.3064H280.064V71.3706C278.667 73.6825 276.658 75.5321 274.038 76.9192C271.476 78.3064 268.477 79 265.041 79C261.024 79 257.384 77.9885 254.124 75.9656C250.863 73.8848 248.272 70.966 246.35 67.209C244.487 63.3943 243.555 59.0016 243.555 54.0309ZM280.064 54.1176C280.064 50.4184 279.016 47.4996 276.92 45.361C274.882 43.2225 272.378 42.1532 269.409 42.1532C266.439 42.1532 263.906 43.2225 261.81 45.361C259.772 47.4418 258.753 50.3318 258.753 54.0309C258.753 57.73 259.772 60.6777 261.81 62.8741C263.906 65.0127 266.439 66.0819 269.409 66.0819C272.378 66.0819 274.882 65.0127 276.92 62.8741C279.016 60.7355 280.064 57.8167 280.064 54.1176Z" fill="white"/>
<path d="M60.1536 36.6722C60.1536 32.9889 63.1617 30.0031 66.8723 30.0031C70.5829 30.0031 73.591 32.9889 73.591 36.6722V60.4904C73.591 64.1736 70.5829 67.1595 66.8723 67.1595C63.1617 67.1595 60.1536 64.1736 60.1536 60.4904V36.6722Z" fill="#C4C4C4"/>
<path d="M84.1489 36.6722C84.1489 32.9889 87.1569 30.0031 90.8675 30.0031C94.5782 30.0031 97.5862 32.9889 97.5862 36.6722V60.4904C97.5862 64.1736 94.5782 67.1595 90.8675 67.1595C87.1569 67.1595 84.1489 64.1736 84.1489 60.4904V36.6722Z" fill="#C4C4C4"/>
<path d="M97.1538 58.9843C97.4701 59.6439 97.5968 60.3894 97.5537 61.1187C96.978 70.8649 88.8331 78.5923 78.8699 78.5923C68.9068 78.5923 60.7619 70.8649 60.1862 61.1187C60.1431 60.3894 60.2698 59.6439 60.5861 58.9843C63.9442 51.9819 68.9675 63.3486 78.8699 63.3486C88.7724 63.3486 93.7957 51.9819 97.1538 58.9843Z" fill="white"/>
</g>
<defs>
<filter id="filter0_d_30_275" x="0" y="0" width="305" height="93" filterUnits="userSpaceOnUse" color-interpolation-filters="sRGB">
<feFlood flood-opacity="0" result="BackgroundImageFix"/>
<feColorMatrix in="SourceAlpha" type="matrix" values="0 0 0 0 0 0 0 0 0 0 0 0 0 0 0 0 0 0 127 0" result="hardAlpha"/>
<feOffset dy="4"/>
<feGaussianBlur stdDeviation="5"/>
<feComposite in2="hardAlpha" operator="out"/>
<feColorMatrix type="matrix" values="0 0 0 0 0 0 0 0 0 0 0 0 0 0 0 0 0 0 0.2 0"/>
<feBlend mode="normal" in2="BackgroundImageFix" result="effect1_dropShadow_30_275"/>
<feBlend mode="normal" in="SourceGraphic" in2="effect1_dropShadow_30_275" result="shape"/>
</filter>
</defs>
</svg>
