<svg width="28" height="28" viewBox="0 0 28 28" fill="none" xmlns="http://www.w3.org/2000/svg">
<path d="M27.2479 12.1786L27.2459 12.1767L15.823 0.755371C15.3361 0.268311 14.6888 0 14.0002 0C13.3116 0 12.6643 0.268097 12.1771 0.755157L0.760177 12.1707C0.756332 12.1746 0.752486 12.1786 0.74864 12.1825C-0.251218 13.188 -0.249508 14.8195 0.753554 15.8224C1.21182 16.2809 1.81708 16.5464 2.46421 16.5742C2.49049 16.5767 2.51698 16.578 2.54368 16.578H2.99896V24.9834C2.99896 26.6467 4.3524 28 6.01627 28H10.4853C10.9382 28 11.3057 27.6328 11.3057 27.1797V20.5898C11.3057 19.8308 11.9231 19.2135 12.6822 19.2135H15.3181C16.0772 19.2135 16.6947 19.8308 16.6947 20.5898V27.1797C16.6947 27.6328 17.0619 28 17.5151 28H21.9841C23.6479 28 25.0014 26.6467 25.0014 24.9834V16.578H25.4235C26.1119 16.578 26.7593 16.3099 27.2466 15.8228C28.2507 14.8182 28.2511 13.184 27.2479 12.1786Z" fill="#F5CE00"/>
</svg>
