<svg width="35" height="28" viewBox="0 0 35 28" fill="none" xmlns="http://www.w3.org/2000/svg">
<path d="M2 7.19C2 5.57785 2 4.77177 2.26338 4.13591C2.61455 3.28812 3.28812 2.61455 4.13591 2.26337C4.77177 2 5.57785 2 7.19 2H27.95C29.5622 2 30.3682 2 31.0041 2.26337C31.8518 2.61455 32.5255 3.28812 32.8767 4.13591C33.14 4.77177 33.14 5.57785 33.14 7.19V21.03C33.14 22.6422 33.14 23.4482 32.8767 24.0841C32.5255 24.9318 31.8518 25.6055 31.0041 25.9567C30.3682 26.22 29.5622 26.22 27.95 26.22H7.19C5.57785 26.22 4.77177 26.22 4.13591 25.9567C3.28812 25.6055 2.61455 24.9318 2.26338 24.0841C2 23.4482 2 22.6422 2 21.03V7.19Z" stroke="#B0B0B0" stroke-width="2.5" stroke-linejoin="round"/>
<path d="M3.72998 3.72998L15.2916 13.8463C16.596 14.9878 18.544 14.9878 19.8484 13.8463L31.41 3.72998" stroke="#B0B0B0" stroke-width="2.5" stroke-linecap="round" stroke-linejoin="round"/>
</svg>
