<svg width="29" height="29" viewBox="0 0 29 29" fill="none" xmlns="http://www.w3.org/2000/svg">
<path d="M28.43 14.215C28.43 6.38253 22.0475 0 14.215 0C6.38253 0 0 6.38253 0 14.215C0 18.3374 1.77688 22.0475 4.59145 24.6488C4.59145 24.663 4.59144 24.663 4.57723 24.6772C4.71938 24.8194 4.88996 24.9331 5.03211 25.061C5.1174 25.1321 5.18848 25.2032 5.27377 25.2601C5.52964 25.4733 5.81394 25.6723 6.08402 25.8713C6.18353 25.9424 6.26882 25.9992 6.36832 26.0703C6.63841 26.2551 6.92271 26.4257 7.22122 26.5821C7.32073 26.6389 7.43445 26.71 7.53395 26.7668C7.81825 26.9232 8.11677 27.0654 8.42949 27.1933C8.54322 27.2502 8.65694 27.307 8.77066 27.3497C9.08339 27.4776 9.39612 27.5913 9.70885 27.6908C9.82257 27.7335 9.93629 27.7761 10.05 27.8045C10.3912 27.904 10.7323 27.9893 11.0735 28.0746C11.173 28.1031 11.2725 28.1315 11.3862 28.1457C11.7842 28.231 12.1823 28.2879 12.5945 28.3305C12.6514 28.3305 12.7082 28.3447 12.7651 28.3589C13.2484 28.4016 13.7317 28.43 14.215 28.43C14.6983 28.43 15.1816 28.4016 15.6507 28.3589C15.7076 28.3589 15.7644 28.3447 15.8213 28.3305C16.2335 28.2879 16.6315 28.231 17.0296 28.1457C17.1291 28.1315 17.2286 28.0888 17.3423 28.0746C17.6835 27.9893 18.0388 27.9183 18.3658 27.8045C18.4795 27.7619 18.5932 27.7193 18.7069 27.6908C19.0197 27.5771 19.3466 27.4776 19.6451 27.3497C19.7589 27.307 19.8726 27.2502 19.9863 27.1933C20.2848 27.0654 20.5833 26.9232 20.8818 26.7668C20.9956 26.71 21.0951 26.6389 21.1946 26.5821C21.4789 26.4115 21.7632 26.2551 22.0475 26.0703C22.147 26.0135 22.2323 25.9424 22.3318 25.8713C22.6161 25.6723 22.8862 25.4733 23.142 25.2601C23.2273 25.189 23.2984 25.1179 23.3837 25.061C23.54 24.9331 23.6964 24.8052 23.8386 24.6772C23.8386 24.663 23.8386 24.663 23.8243 24.6488C26.6531 22.0475 28.43 18.3374 28.43 14.215ZM21.2372 21.2799C17.3849 18.6927 11.0735 18.6927 7.19279 21.2799C6.56733 21.6921 6.05559 22.1754 5.62914 22.7014C3.46846 20.5122 2.13225 17.5129 2.13225 14.215C2.13225 7.54816 7.54816 2.13225 14.215 2.13225C20.8818 2.13225 26.2978 7.54816 26.2978 14.215C26.2978 17.5129 24.9615 20.5122 22.8009 22.7014C22.3886 22.1754 21.8627 21.6921 21.2372 21.2799Z" fill="#B0B0B0"/>
<path d="M14.2149 7.00745C11.2724 7.00745 8.88428 9.39557 8.88428 12.3381C8.88428 15.2237 11.1445 17.5692 14.1438 17.6545C14.1865 17.6545 14.2433 17.6545 14.2718 17.6545C14.3002 17.6545 14.3428 17.6545 14.3713 17.6545C14.3855 17.6545 14.3997 17.6545 14.3997 17.6545C17.2711 17.555 19.5313 15.2237 19.5455 12.3381C19.5455 9.39557 17.1574 7.00745 14.2149 7.00745Z" fill="#B0B0B0"/>
</svg>
