<svg width="29" height="30" viewBox="0 0 29 30" fill="none" xmlns="http://www.w3.org/2000/svg">
<path d="M9.94515 25.824V25.0647H3.72945C2.74075 25.0635 1.79293 24.7031 1.09381 24.0626C0.394693 23.4221 0.00135141 22.5538 3.57752e-05 21.648V21.0679C-0.00321305 20.3455 0.214874 19.6367 0.629494 19.0222C1.04411 18.4077 1.63863 17.9122 2.34542 17.5919C2.66149 17.4471 2.93179 17.2305 3.13055 16.9628C3.32931 16.6951 3.4499 16.3852 3.48083 16.0627L4.22008 8.60664C4.45077 6.25555 5.63326 4.0686 7.535 2.4759C9.43674 0.883198 11.9201 0 14.4967 0C17.0733 0 19.5567 0.883198 21.4584 2.4759C23.3601 4.0686 24.5426 6.25555 24.7733 8.60664L25.5126 16.0627C25.546 16.3844 25.6679 16.693 25.8667 16.9599C26.0655 17.2268 26.3349 17.4431 26.6496 17.5889C27.357 17.9093 27.9522 18.405 28.3676 19.0197C28.783 19.6344 29.0021 20.3434 29 21.0664V21.6464C28.9991 22.5524 28.6059 23.421 27.9067 24.0616C27.2075 24.7021 26.2594 25.0624 25.2706 25.0632H19.0615V25.824C19.0615 26.9315 18.5813 27.9937 17.7264 28.7769C16.8716 29.56 15.7122 30 14.5033 30C13.2944 30 12.135 29.56 11.2802 28.7769C10.4254 27.9937 9.94515 26.9315 9.94515 25.824ZM12.4314 25.824C12.4314 26.3274 12.6497 26.8102 13.0383 27.1662C13.4268 27.5222 13.9538 27.7222 14.5033 27.7222C15.0528 27.7222 15.5798 27.5222 15.9684 27.1662C16.3569 26.8102 16.5752 26.3274 16.5752 25.824V25.0647H12.4314V25.824ZM6.7047 8.8162L5.9671 16.2693C5.89867 16.9788 5.63242 17.6604 5.19386 18.2485C4.7553 18.8367 4.15916 19.3118 3.46259 19.6283C3.16897 19.7607 2.92181 19.966 2.74922 20.2208C2.57663 20.4755 2.48554 20.7696 2.48631 21.0694V21.6495C2.48719 21.9512 2.6185 22.2402 2.85149 22.4534C3.08448 22.6666 3.40017 22.7865 3.72945 22.7869H25.2772C25.6068 22.7865 25.9227 22.6664 26.1557 22.4529C26.3888 22.2394 26.5199 21.9499 26.5203 21.648V21.0679C26.5214 20.7687 26.431 20.4753 26.2594 20.2208C26.0877 19.9664 25.8416 19.7611 25.549 19.6283C24.8516 19.3123 24.2546 18.8374 23.8151 18.2492C23.3757 17.661 23.1086 16.9792 23.0395 16.2693L22.3036 8.8162C22.1263 7.03335 21.2278 5.37564 19.7848 4.16856C18.3417 2.96148 16.4582 2.29224 14.5042 2.29224C12.5501 2.29224 10.6666 2.96148 9.22353 4.16856C7.78046 5.37564 6.88205 7.03335 6.7047 8.8162Z" fill="#B0B0B0"/>
</svg>
